<?xml version="1.0" encoding="UTF-8"?>
<!--
  Framed-picture glyph anchoring the "Scripture in Art" hero row. Bundled,
  fill-only (an even-odd frame ring enclosing a solid sun and mountain) so
  GTK4 recolors it to @accent_color reliably, matching the commentary and
  globe symbolics alongside it.
-->
<svg xmlns="http://www.w3.org/2000/svg" width="16" height="16" viewBox="0 0 16 16">
  <g fill="#222">
    <path fill-rule="evenodd" d="M3.4 2.4 H12.6 A2 2 0 0 1 14.6 4.4 V11.6 A2 2 0 0 1 12.6 13.6 H3.4 A2 2 0 0 1 1.4 11.6 V4.4 A2 2 0 0 1 3.4 2.4 Z M3.4 3.7 A0.7 0.7 0 0 0 2.7 4.4 V11.6 A0.7 0.7 0 0 0 3.4 12.3 H12.6 A0.7 0.7 0 0 0 13.3 11.6 V4.4 A0.7 0.7 0 0 0 12.6 3.7 Z"/>
    <circle cx="5.2" cy="6.0" r="1.15"/>
    <path d="M2.9 11.4 L6.3 7.4 L8.7 9.9 L10.6 7.9 L13.1 11.4 Z"/>
  </g>
</svg>
