<?xml version="1.0" encoding="UTF-8"?>
<!--
  Framed-picture glyph anchoring the "Scripture in Art" hero row. Bundled,
  fill-only (an even-odd frame ring enclosing a solid sun and mountain) so
  GTK4 recolors it to @accent_color reliably, matching the commentary and
  globe symbolics alongside it.

  Weight pass 2026-07-17: frame 1.3 → 1.8 toward the GNOME 2px symbolic
  norm; sun and mountains nudged inward to keep clear of the heavier frame.
-->
<svg xmlns="http://www.w3.org/2000/svg" width="16" height="16" viewBox="0 0 16 16">
  <g fill="#222">
    <path fill-rule="evenodd" d="M3.4 2.4 H12.6 A2 2 0 0 1 14.6 4.4 V11.6 A2 2 0 0 1 12.6 13.6 H3.4 A2 2 0 0 1 1.4 11.6 V4.4 A2 2 0 0 1 3.4 2.4 Z M3.9 4.2 A0.7 0.7 0 0 0 3.2 4.9 V11.1 A0.7 0.7 0 0 0 3.9 11.8 H12.1 A0.7 0.7 0 0 0 12.8 11.1 V4.9 A0.7 0.7 0 0 0 12.1 4.2 Z"/>
    <circle cx="5.6" cy="6.4" r="1.1"/>
    <path d="M3.5 11.0 L6.5 7.8 L8.6 10.0 L10.2 8.3 L12.5 11.0 Z"/>
  </g>
</svg>
